name rise44.9368peak50.754fall52.0217.mot
datacolumns 19
datarows 20
range 15.25328900000000 15.28494600000000
endheader
time	ground_force1_vx	ground_force1_vy	ground_force1_vz	ground_force1_px	ground_force1_py	ground_force1_pz	ground_force2_vx	ground_force2_vy	ground_force2_vz	ground_force2_px	ground_force2_py	ground_force2_pz	ground_torque1_x	ground_torque1_y	ground_torque1_z	ground_torque2_x	ground_torque2_y	ground_torque2_z	
15.25328900000000	-52.27709700000000	795.46227899999997	64.07980400000000	0.13942300000000	0.00000000000000	0.14114500000000	-1.34288000000000	3.60685200000000	0.82910800000000	0.00000000000000	0.00000000000000	0.00000000000000	0.00000000000000	32.44641600000000	0.00000000000000	0.00000000000000	0.27038400000000	0.00000000000000	
15.25494300000000	-52.49894200000000	794.38623199999995	64.04947700000000	0.13880500000000	0.00000000000000	0.14109900000000	-2.12369700000000	7.00511400000000	1.37993400000000	0.00000000000000	0.00000000000000	0.00000000000000	0.00000000000000	32.37827500000000	0.00000000000000	0.00000000000000	0.46236400000000	0.00000000000000	
15.25661300000000	-52.71959000000000	793.20135000000005	63.99895600000000	0.13820000000000	0.00000000000000	0.14105000000000	-3.00106700000000	11.11968000000000	2.01396000000000	0.00000000000000	0.00000000000000	0.00000000000000	0.00000000000000	32.30604100000000	0.00000000000000	0.00000000000000	0.68576100000000	0.00000000000000	
15.25828000000000	-52.93948800000000	791.90561500000001	63.92762400000000	0.13760900000000	0.00000000000000	0.14099700000000	-3.94651100000000	15.90960500000000	2.71515800000000	0.00000000000000	0.00000000000000	0.00000000000000	0.00000000000000	32.22976000000000	0.00000000000000	0.00000000000000	0.93565400000000	0.00000000000000	
15.25994600000000	-53.15908400000000	790.49704299999996	63.83488800000000	0.13703000000000	0.00000000000000	0.14094000000000	-4.92485900000000	21.30278200000000	3.46259100000000	0.00000000000000	0.00000000000000	0.00000000000000	0.00000000000000	32.14948400000000	0.00000000000000	0.00000000000000	1.20539000000000	0.00000000000000	
15.26160900000000	-53.37883200000000	788.97368200000005	63.72018700000000	0.13646200000000	0.00000000000000	0.14087900000000	-5.89651900000000	27.20145800000000	4.23178500000000	0.35053000000000	0.00000000000000	-0.07075200000000	0.00000000000000	32.06526700000000	0.00000000000000	0.00000000000000	2.55320100000000	0.00000000000000	
15.26327700000000	-53.59918100000000	787.33361800000000	63.58299300000000	0.13590600000000	0.00000000000000	0.14081500000000	-6.82032000000000	33.49054900000000	4.99651800000000	0.35788800000000	0.00000000000000	-0.07119800000000	0.00000000000000	31.97716600000000	0.00000000000000	0.00000000000000	3.07450500000000	0.00000000000000	
15.26495100000000	-53.82058100000000	785.57497000000001	63.42280900000000	0.13536100000000	0.00000000000000	0.14074700000000	-7.65654800000000	40.04762600000000	5.73079400000000	0.36446700000000	0.00000000000000	-0.07161600000000	0.00000000000000	31.88524200000000	0.00000000000000	0.00000000000000	3.59170200000000	0.00000000000000	
15.26661100000000	-54.04347200000000	783.69589900000005	63.23917700000000	0.13482700000000	0.00000000000000	0.14067400000000	-8.36979500000000	46.75316300000000	6.41074500000000	0.37037800000000	0.00000000000000	-0.07201000000000	0.00000000000000	31.78955800000000	0.00000000000000	0.00000000000000	4.08895800000000	0.00000000000000	
15.26827900000000	-54.26828700000000	781.69460300000003	63.03167700000000	0.13430100000000	0.00000000000000	0.14059800000000	-8.93122400000000	53.49967200000000	7.01620100000000	0.37571100000000	0.00000000000000	-0.07238400000000	0.00000000000000	31.69018000000000	0.00000000000000	0.00000000000000	4.55231900000000	0.00000000000000	
15.26994600000000	-54.49544500000000	779.56932400000005	62.79992900000000	0.13378600000000	0.00000000000000	0.14051700000000	-9.32006600000000	60.19875500000000	7.53179100000000	0.38054000000000	0.00000000000000	-0.07274000000000	0.00000000000000	31.58717400000000	0.00000000000000	0.00000000000000	4.97053900000000	0.00000000000000	
15.27161300000000	-54.72534800000000	777.31834500000002	62.54359500000000	0.13327800000000	0.00000000000000	0.14043200000000	-9.52425300000000	66.78558800000000	7.94748700000000	0.38492700000000	0.00000000000000	-0.07308200000000	0.00000000000000	31.48060900000000	0.00000000000000	0.00000000000000	5.33557300000000	0.00000000000000	
15.27328200000000	-54.95838100000000	774.93999899999994	62.26238200000000	0.13277800000000	0.00000000000000	0.14034300000000	-9.54024800000000	73.22076100000000	8.25864400000000	0.38892400000000	0.00000000000000	-0.07340900000000	0.00000000000000	31.37055700000000	0.00000000000000	0.00000000000000	5.64273300000000	0.00000000000000	
15.27494900000000	-55.19490300000000	772.43266300000005	61.95604000000000	0.13228600000000	0.00000000000000	0.14025000000000	-9.37221400000000	79.48972000000001	8.46558400000000	0.39257300000000	0.00000000000000	-0.07372600000000	0.00000000000000	31.25708600000000	0.00000000000000	0.00000000000000	5.89053800000000	0.00000000000000	
15.27661000000000	-55.43525000000000	769.79476699999998	61.62437000000000	0.13180100000000	0.00000000000000	0.14015200000000	-9.03068200000000	85.60026000000001	8.57284500000000	0.39591300000000	0.00000000000000	-0.07403200000000	0.00000000000000	31.14026900000000	0.00000000000000	0.00000000000000	6.08032500000000	0.00000000000000	
15.27827600000000	-55.67972600000000	767.02479200000005	61.26721900000000	0.13132100000000	0.00000000000000	0.14005000000000	-8.53093400000000	91.57859900000000	8.58821600000000	0.39897500000000	0.00000000000000	-0.07432800000000	0.00000000000000	31.02017700000000	0.00000000000000	0.00000000000000	6.21570100000000	0.00000000000000	
15.27994200000000	-55.92860400000000	764.12127599999997	60.88448300000000	0.13084700000000	0.00000000000000	0.13994400000000	-7.89127500000000	97.46461499999999	8.52166900000000	0.40178800000000	0.00000000000000	-0.07461600000000	0.00000000000000	30.89688000000000	0.00000000000000	0.00000000000000	6.30188700000000	0.00000000000000	
15.28161100000000	-56.18211600000000	761.08281299999999	60.47611100000000	0.13037700000000	0.00000000000000	0.13983300000000	-7.13134400000000	103.30679100000000	8.38429800000000	0.40437400000000	0.00000000000000	-0.07489700000000	0.00000000000000	30.77044700000000	0.00000000000000	0.00000000000000	6.34506000000000	0.00000000000000	
15.28327700000000	-56.44046000000000	757.90805799999998	60.04210100000000	0.12991200000000	0.00000000000000	0.13971800000000	-6.27062300000000	109.15730900000000	8.18735300000000	0.40675500000000	0.00000000000000	-0.07517000000000	0.00000000000000	30.64094500000000	0.00000000000000	0.00000000000000	6.35171800000000	0.00000000000000	
15.28494600000000	-56.70378400000000	754.59572900000001	59.58250500000000	0.12945000000000	0.00000000000000	0.13959900000000	-5.32719900000000	115.06768400000000	7.94142000000000	0.40894900000000	0.00000000000000	-0.07543700000000	0.00000000000000	30.50844000000000	0.00000000000000	0.00000000000000	6.32814100000000	0.00000000000000	
